<svg width="25" height="38" viewBox="0 0 25 38" fill="none" xmlns="http://www.w3.org/2000/svg">
<g clip-path="url(#clip0_2_1118)">
<path d="M6.25125 37.5246C9.70056 37.5246 12.5 34.7227 12.5 31.2705V25.0164H6.25125C2.80194 25.0164 0.00250244 27.8182 0.00250244 31.2705C0.00250244 34.7227 2.80194 37.5246 6.25125 37.5246Z" fill="#0ACF83"/>
<path d="M0.00250244 18.7623C0.00250244 15.31 2.80194 12.5082 6.25125 12.5082H12.5V25.0164H6.25125C2.80194 25.0164 0.00250244 22.2145 0.00250244 18.7623Z" fill="#A259FF"/>
<path d="M0.00250244 6.25409C0.00250244 2.80183 2.80194 0 6.25125 0H12.5V12.5082H6.25125C2.80194 12.5082 0.00250244 9.70635 0.00250244 6.25409Z" fill="#F24E1E"/>
<path d="M12.5 0H18.7487C22.1981 0 24.9975 2.80183 24.9975 6.25409C24.9975 9.70635 22.1981 12.5082 18.7487 12.5082H12.5V0Z" fill="#FF7262"/>
<path d="M24.9975 18.7623C24.9975 22.2145 22.1981 25.0164 18.7487 25.0164C15.2994 25.0164 12.5 22.2145 12.5 18.7623C12.5 15.31 15.2994 12.5082 18.7487 12.5082C22.1981 12.5082 24.9975 15.31 24.9975 18.7623Z" fill="#1ABCFE"/>
</g>
<defs>
<clipPath id="clip0_2_1118">
<rect width="25" height="37.5246" fill="white"/>
</clipPath>
</defs>
</svg>
